<svg width="48" height="48" viewBox="0 0 48 48" fill="none" xmlns="http://www.w3.org/2000/svg">
<path d="M37.2192 32.6501L40.2461 41.6703C40.6701 42.9336 39.6153 44.2009 38.2961 44.0134L33.7592 43.3686L30.6498 46.7227C29.7332 47.7114 28.0941 47.3712 27.6467 46.0994L25.2477 39.2794" stroke="#0B0B0B" stroke-width="1.40625" stroke-miterlimit="10" stroke-linecap="round" stroke-linejoin="round"/>
<path d="M8.24766 40.1985L7.75378 41.6703C7.32984 42.9336 8.38463 44.2009 9.70388 44.0134L14.2407 43.3686L17.3501 46.7227C18.2667 47.7114 19.9058 47.3712 20.3532 46.0994L22.7476 39.2925" stroke="#0B0B0B" stroke-width="1.40625" stroke-miterlimit="10" stroke-linecap="round" stroke-linejoin="round"/>
<path d="M10.7864 32.6333L9.27478 37.1379" stroke="#0B0B0B" stroke-width="1.40625" stroke-miterlimit="10" stroke-linecap="round" stroke-linejoin="round"/>
<path d="M38.6821 8.39736C40.5481 9.35951 41.647 11.3761 41.4221 13.4845L41.4216 13.49C41.2871 14.7511 41.626 16.0172 42.3725 17.0424L42.3796 17.0523C43.6859 18.8465 43.6859 21.2786 42.3796 23.0729L42.3725 23.0827C41.626 24.108 41.2871 25.3741 41.4216 26.6352L41.4221 26.6407C41.6578 28.8512 40.4386 30.9607 38.4056 31.8601C37.2421 32.3748 36.3122 33.3047 35.7975 34.4682C34.8982 36.5012 32.7886 37.7204 30.5781 37.4847L30.5726 37.4841C29.3115 37.3497 28.0454 37.6886 27.0202 38.435L27.0103 38.4422C25.216 39.7485 22.784 39.7485 20.9897 38.4422L20.9799 38.435C19.9546 37.6886 18.6885 37.3497 17.4274 37.4841L17.4219 37.4847C15.2114 37.7204 13.1019 36.5012 12.2025 34.4682C11.6878 33.3047 10.7579 32.3748 9.59439 31.8601C7.56142 30.9607 6.3422 28.8512 6.57789 26.6406L6.57845 26.6352C6.71289 25.3741 6.37398 24.108 5.62755 23.0827L5.62042 23.0729C4.31411 21.2786 4.31411 18.8465 5.62042 17.0523L5.62755 17.0424C6.37398 16.0172 6.71289 14.7511 6.57845 13.49L6.57789 13.4844C6.3422 11.274 7.56142 9.16442 9.59439 8.26508C10.7579 7.75039 11.6878 6.82048 12.2025 5.65695C13.1019 3.62398 15.2114 2.40476 17.422 2.64045L17.4274 2.64101C18.6885 2.77545 19.9546 2.43654 20.9799 1.69011L20.9897 1.68298C22.784 0.376669 25.216 0.376669 27.0103 1.68298L27.0202 1.69011C28.0454 2.43654 29.3115 2.77545 30.5726 2.64101L30.5782 2.64045C32.7886 2.40476 34.8982 3.62398 35.7975 5.65695C35.9032 5.89573 36.0263 6.12476 36.1654 6.34236" stroke="#0B0B0B" stroke-width="1.40625" stroke-miterlimit="10" stroke-linecap="round" stroke-linejoin="round"/>
<path d="M24 32.25C30.731 32.25 36.1875 26.7935 36.1875 20.0625C36.1875 13.3315 30.731 7.875 24 7.875C17.269 7.875 11.8125 13.3315 11.8125 20.0625C11.8125 26.7935 17.269 32.25 24 32.25Z" stroke="#0B0B0B" stroke-width="1.40625" stroke-miterlimit="10" stroke-linecap="round" stroke-linejoin="round"/>
<path d="M16.0463 7.3425C18.3519 5.89772 21.0784 5.0625 24 5.0625C32.2843 5.0625 39 11.7782 39 20.0625C39 28.3468 32.2843 35.0625 24 35.0625C15.7157 35.0625 9 28.3468 9 20.0625C9 15.8899 10.7037 12.1152 13.4534 9.39619" stroke="#0B0B0B" stroke-width="1.40625" stroke-miterlimit="10" stroke-linecap="round" stroke-linejoin="round"/>
<path d="M28.7796 25.8628C28.4312 26.2279 28.0369 26.5553 27.6014 26.8364L24.0368 29.1378C24.0257 29.145 24.0133 29.1487 24.0001 29.1487C23.9869 29.1487 23.9745 29.145 23.9633 29.1378L20.3988 26.8364C18.5444 25.6393 17.4375 23.6044 17.4375 21.3931V13.6204C17.805 13.6645 18.1755 13.6868 18.5445 13.6868C20.4937 13.6868 22.4219 13.0586 24 11.9138C25.578 13.0586 27.5061 13.6868 29.4556 13.6868C29.8245 13.6868 30.195 13.6645 30.5625 13.6204V21.3931C30.5625 21.9471 30.493 22.4899 30.3598 23.0113" stroke="#0B0B0B" stroke-width="1.40625" stroke-miterlimit="10" stroke-linecap="round" stroke-linejoin="round"/>
<path d="M27.1726 18.0571L23.3917 22.9532L20.8274 20.0847" stroke="#0B0B0B" stroke-width="1.40625" stroke-miterlimit="10" stroke-linecap="round" stroke-linejoin="round"/>
</svg>
